<?xml version="1.0" standalone="no"?>
<!DOCTYPE svg PUBLIC "-//W3C//DTD SVG 20010904//EN"
 "http://www.w3.org/TR/2001/REC-SVG-20010904/DTD/svg10.dtd">
<svg version="1.0" xmlns="http://www.w3.org/2000/svg"
 width="1200.000000pt" height="635.000000pt" viewBox="0 0 1200.000000 635.000000"
 preserveAspectRatio="xMidYMid meet">

<g transform="translate(0.000000,635.000000) scale(0.100000,-0.100000)"
fill="#000000" stroke="none">
<path d="M5160 5043 c-61 -22 -142 -104 -163 -167 -25 -72 -22 -160 7 -221 13
-27 92 -156 176 -285 131 -201 155 -243 162 -289 19 -119 91 -216 196 -264 72
-33 189 -30 264 6 134 65 208 216 178 361 -8 40 -27 80 -64 134 -29 42 -133
201 -230 352 -188 291 -235 347 -313 374 -58 20 -154 19 -213 -1z"/>
<path d="M6676 4534 c-128 -41 -202 -129 -229 -272 -12 -61 -28 -90 -182 -327
-92 -143 -175 -280 -183 -303 -20 -59 -12 -164 17 -219 63 -125 208 -188 342
-150 103 30 119 49 366 427 125 193 239 371 253 397 21 41 25 61 25 138 0 105
-21 158 -87 226 -79 81 -217 117 -322 83z"/>
<path d="M4000 2455 c-150 -46 -220 -228 -143 -367 55 -99 175 -152 291 -129
54 11 134 50 148 72 3 6 -9 27 -29 46 l-35 36 -34 -26 c-71 -55 -177 -39 -229
34 -32 45 -33 135 -3 176 56 76 141 94 221 48 l43 -26 35 28 c19 15 35 31 35
35 0 13 -67 58 -109 73 -53 18 -131 18 -191 0z"/>
<path d="M4519 2456 c-153 -54 -221 -209 -155 -351 90 -195 384 -204 490 -16
78 140 5 321 -148 366 -60 18 -138 19 -187 1z m172 -108 c91 -51 104 -186 24
-257 -50 -43 -111 -50 -172 -20 -58 30 -83 74 -83 145 0 121 124 192 231 132z"/>
<path d="M5850 2450 c-194 -67 -226 -340 -53 -450 106 -67 249 -59 343 20 l25
20 -39 35 c-35 31 -41 33 -56 20 -80 -72 -216 -45 -256 52 -60 144 103 284
230 198 20 -14 40 -25 44 -25 4 0 22 15 41 32 l35 31 -35 29 c-68 57 -180 72
-279 38z"/>
<path d="M3050 2210 l0 -250 55 0 55 0 0 250 0 250 -55 0 -55 0 0 -250z"/>
<path d="M3280 2210 l0 -250 55 0 54 0 3 152 3 152 125 -152 124 -152 48 0 48
0 0 250 0 250 -61 0 -60 0 3 -145 c2 -80 1 -145 -2 -145 -3 0 -59 65 -124 145
l-118 145 -49 0 -49 0 0 -250z"/>
<path d="M5271 2318 c-35 -79 -86 -192 -112 -251 l-48 -108 61 3 62 3 21 53
20 52 116 0 117 0 22 -55 22 -55 59 0 c33 0 59 3 59 8 -1 4 -49 115 -109 247
l-108 240 -59 3 -59 3 -64 -143z m168 -83 l30 -70 -71 -3 c-39 -2 -73 -1 -75
2 -5 4 49 143 65 170 3 6 9 1 14 -10 4 -10 21 -50 37 -89z"/>
<path d="M6277 2218 c-59 -134 -107 -246 -107 -250 0 -5 25 -8 56 -8 l55 0 25
55 24 56 116 -3 117 -3 20 -52 20 -53 58 0 c33 0 59 4 59 8 0 5 -48 116 -108
248 l-108 239 -59 3 -60 2 -108 -242z m207 32 c20 -46 36 -86 36 -87 0 -2 -34
-3 -75 -3 -41 0 -75 2 -75 5 0 3 12 34 26 68 15 34 30 73 35 86 5 13 11 22 14
20 2 -3 20 -42 39 -89z"/>
<path d="M6780 2210 l0 -250 125 0 c150 0 210 12 273 53 121 82 137 260 33
368 -64 65 -115 79 -293 79 l-138 0 0 -250z m314 131 c66 -41 87 -146 43 -212
-34 -51 -78 -69 -169 -69 l-78 0 0 148 c0 82 3 152 8 156 15 16 160 -1 196
-23z"/>
<path d="M7370 2210 l0 -250 193 2 192 3 0 45 0 45 -137 3 -138 3 0 54 0 55
120 0 120 0 0 45 0 45 -121 0 -120 0 3 53 3 52 133 3 132 3 0 44 0 45 -190 0
-190 0 0 -250z"/>
<path d="M7850 2209 l0 -250 53 3 52 3 0 138 c0 75 2 137 5 137 3 0 36 -52 74
-116 92 -153 95 -153 191 10 l70 119 3 -147 3 -146 54 0 55 0 0 250 0 250 -49
0 -49 0 -88 -150 c-49 -82 -91 -150 -94 -150 -3 0 -45 67 -95 150 l-90 149
-47 1 -48 0 0 -251z"/>
<path d="M8553 2308 l92 -153 5 -95 5 -95 58 -3 57 -3 0 90 0 91 95 156 c52
85 95 158 95 160 0 3 -26 4 -57 2 l-57 -3 -61 -102 c-33 -56 -63 -103 -67
-103 -4 0 -35 47 -70 105 l-63 105 -62 0 -62 0 92 -152z"/>
<path d="M4126 1594 c-158 -58 -216 -254 -116 -392 46 -64 108 -95 201 -100
95 -5 152 12 211 66 137 123 102 340 -67 418 -59 28 -166 32 -229 8z m192
-104 c37 -23 72 -88 72 -135 0 -43 -34 -110 -64 -131 -81 -52 -189 -25 -232
58 -21 40 -18 117 6 156 43 70 147 95 218 52z"/>
<path d="M5513 1602 l-61 -3 -106 -109 c-58 -61 -108 -110 -111 -110 -3 0 -5
50 -5 110 l0 110 -55 0 -55 0 0 -245 0 -245 55 0 55 0 0 58 c1 51 4 61 36 95
l35 38 21 -27 c12 -15 46 -57 76 -93 l54 -66 69 -5 c38 -3 68 -2 67 2 -2 4
-50 66 -107 138 l-103 132 38 41 c21 23 68 72 103 109 36 37 63 69 60 70 -2 2
-32 2 -66 0z"/>
<path d="M7911 1593 c-122 -43 -191 -196 -146 -324 38 -105 115 -160 236 -167
89 -5 147 11 200 55 l30 26 -23 24 c-40 43 -57 47 -83 23 -46 -43 -137 -44
-194 -2 -84 61 -79 201 9 260 30 20 45 23 97 20 47 -3 68 -9 86 -26 31 -29 37
-28 75 11 l32 33 -22 22 c-64 59 -199 80 -297 45z"/>
<path d="M3214 1355 l80 -246 64 3 64 3 54 154 c30 85 56 157 59 159 2 2 27
-69 55 -158 l51 -161 66 3 66 3 78 240 c43 132 79 241 79 243 0 2 -25 2 -56 0
l-57 -3 -54 -169 c-30 -92 -56 -166 -59 -164 -2 3 -28 79 -57 169 l-53 164
-56 3 -56 3 -58 -173 -58 -173 -55 173 -56 172 -61 0 -61 0 81 -245z"/>
<path d="M4590 1355 l0 -245 60 0 60 0 0 70 0 70 50 0 50 0 47 -69 48 -69 63
-4 c34 -1 62 -1 62 1 0 3 -23 38 -51 78 l-50 73 39 37 c92 87 73 225 -38 281
-40 20 -59 22 -192 22 l-148 0 0 -245z m296 122 c26 -31 30 -54 13 -90 -16
-34 -49 -47 -124 -47 l-65 0 0 86 0 86 76 -4 c69 -3 79 -6 100 -31z"/>
<path d="M5850 1355 l0 -245 60 0 60 0 0 245 0 245 -60 0 -60 0 0 -245z"/>
<path d="M6080 1355 l0 -245 60 0 59 0 3 144 3 144 118 -144 118 -144 50 0 49
0 0 245 0 245 -55 0 -55 0 0 -145 c0 -81 -4 -145 -9 -145 -5 0 -11 4 -13 10
-1 5 -52 70 -113 144 l-110 135 -52 1 -53 0 0 -245z"/>
<path d="M6808 1555 l4 -45 79 0 79 0 0 -200 0 -200 55 0 55 0 0 200 0 200 80
0 80 0 0 45 0 45 -218 0 -217 0 3 -45z"/>
<path d="M7310 1355 l0 -245 190 0 190 0 0 45 0 45 -135 0 -135 0 0 55 0 55
115 0 115 0 0 45 0 45 -115 0 -115 0 0 55 0 55 130 0 130 0 0 45 0 45 -185 0
-185 0 0 -245z"/>
<path d="M8310 1355 l0 -245 55 0 55 0 0 100 0 100 115 0 115 0 0 -100 0 -100
55 0 55 0 0 245 0 245 -55 0 -55 0 0 -95 0 -95 -115 0 -115 0 0 95 0 95 -55 0
-55 0 0 -245z"/>
</g>
</svg>
